<svg width="24" height="24" viewBox="0 0 24 24" fill="none" xmlns="http://www.w3.org/2000/svg">
<path d="M21.9238 12.4931C21.9169 11.7472 21.6164 11.0341 21.0874 10.5083L15.0055 4.41225C14.7399 4.14821 14.3806 4 14.006 4C13.6315 4 13.2722 4.14821 13.0066 4.41225C12.8737 4.54405 12.7682 4.70084 12.6962 4.8736C12.6243 5.04636 12.5872 5.23166 12.5872 5.41881C12.5872 5.60596 12.6243 5.79126 12.6962 5.96402C12.7682 6.13678 12.8737 6.29358 13.0066 6.42537L17.6708 11.0754H3.49386C3.11787 11.0754 2.75727 11.2248 2.4914 11.4906C2.22554 11.7565 2.07617 12.1171 2.07617 12.4931C2.07617 12.8691 2.22554 13.2297 2.4914 13.4955C2.75727 13.7614 3.11787 13.9108 3.49386 13.9108H17.6708L13.0066 18.575C12.7396 18.84 12.5889 19.2003 12.5876 19.5765C12.5862 19.9527 12.7344 20.314 12.9995 20.581C13.2645 20.8479 13.6248 20.9987 14.001 21C14.3772 21.0013 14.7385 20.8531 15.0055 20.5881L21.0874 14.492C21.6199 13.9627 21.9207 13.2438 21.9238 12.4931Z" fill="#8C2CFF"/>
</svg>
