<svg width="36" height="36" viewBox="0 0 36 36" fill="none" xmlns="http://www.w3.org/2000/svg">
<path d="M9.25363 8.00054C9.00542 8.00061 8.76286 8.07472 8.55697 8.21339C8.35108 8.35207 8.19121 8.54902 8.09781 8.77905C8.00441 9.00909 7.98172 9.26176 8.03263 9.50476C8.08354 9.74777 8.20575 9.97006 8.38363 10.1432L16.2356 17.9973L8.38363 25.8514C8.26388 25.9664 8.16827 26.1042 8.10241 26.2566C8.03655 26.409 8.00175 26.5731 8.00006 26.7391C7.99838 26.9051 8.02983 27.0699 8.09257 27.2236C8.15532 27.3773 8.24811 27.517 8.36549 27.6344C8.48288 27.7518 8.62251 27.8446 8.7762 27.9074C8.92989 27.9702 9.09456 28.0016 9.26056 27.9999C9.42656 27.9982 9.59055 27.9634 9.74294 27.8976C9.89532 27.8317 10.033 27.736 10.148 27.6163L18 19.7622L25.852 27.6163C25.967 27.736 26.1047 27.8317 26.2571 27.8976C26.4094 27.9634 26.5734 27.9982 26.7394 27.9999C26.9054 28.0016 27.0701 27.9702 27.2238 27.9074C27.3775 27.8446 27.5171 27.7518 27.6345 27.6344C27.7519 27.517 27.8447 27.3773 27.9074 27.2236C27.9702 27.0699 28.0016 26.9051 27.9999 26.7391C27.9982 26.5731 27.9635 26.409 27.8976 26.2566C27.8317 26.1042 27.7361 25.9664 27.6164 25.8514L19.7644 17.9973L27.6164 10.1432C27.7967 9.96792 27.9198 9.74222 27.9697 9.4957C28.0195 9.24918 27.9938 8.99335 27.8958 8.76172C27.7978 8.5301 27.6321 8.33349 27.4205 8.19766C27.2089 8.06184 26.9611 7.99313 26.7098 8.00054C26.3856 8.0102 26.078 8.14572 25.852 8.37838L18 16.2325L10.148 8.37838C10.0317 8.25882 9.89268 8.16378 9.73906 8.09889C9.58545 8.03399 9.42039 8.00055 9.25363 8.00054Z" fill="white"/>
</svg>
