<svg width="29" height="28" viewBox="0 0 29 28" fill="none" xmlns="http://www.w3.org/2000/svg">
<path fill-rule="evenodd" clip-rule="evenodd" d="M26.1361 0.436996C26.7183 -0.145029 27.6621 -0.145163 28.2443 0.436996L28.4782 0.670917C29.06 1.2531 29.0601 2.19699 28.4782 2.77912L17.6081 13.6492C17.4144 13.8432 17.4144 14.1579 17.6081 14.3519L28.4782 25.222C29.0599 25.8042 29.0602 26.7481 28.4782 27.3302L28.2443 27.5641C27.6622 28.146 26.7183 28.1457 26.1361 27.5641L15.266 16.694C15.072 16.5002 14.7573 16.5002 14.5633 16.694L3.69323 27.5641C3.1111 28.1459 2.16719 28.1459 1.58503 27.5641L1.35111 27.3302C0.768978 26.748 0.769165 25.8042 1.35111 25.222L12.2212 14.3519C12.4149 14.158 12.4146 13.8432 12.2212 13.6492L1.35111 2.77912C0.769112 2.1969 0.769032 1.25308 1.35111 0.670917L1.58503 0.436996C2.16719 -0.145163 3.11099 -0.145029 3.69323 0.436996L14.5633 11.307C14.7573 11.5005 15.0721 11.5007 15.266 11.307L26.1361 0.436996ZM3.34187 27.2117C3.29401 27.2596 3.24182 27.3009 3.18754 27.3369C3.21441 27.3191 3.24172 27.3014 3.26713 27.2806L3.34187 27.2117ZM26.4874 27.2127C26.5109 27.2361 26.5351 27.2581 26.5602 27.2787C26.5349 27.258 26.5101 27.2353 26.4865 27.2117L26.4874 27.2127ZM17.2568 13.2968C17.2324 13.3212 17.2101 13.3474 17.1888 13.3735L17.2568 13.2968ZM15.4359 11.7992C15.4441 11.7941 15.453 11.79 15.4611 11.7846L15.4708 11.7778C15.4595 11.7855 15.4475 11.792 15.4359 11.7992ZM1.63356 2.35204C1.635 2.35381 1.63696 2.35514 1.63842 2.3569C1.61563 2.32933 1.59468 2.30079 1.57533 2.27148L1.63356 2.35204Z" fill="white"/>
</svg>
