<svg width="16" height="20" viewBox="0 0 16 20" fill="none" xmlns="http://www.w3.org/2000/svg">
<path d="M2.52794 15.8771C2.99332 15.4101 2.99332 14.653 2.52794 14.186C2.06256 13.7191 1.30803 13.7191 0.842647 14.186C0.377266 14.653 0.377266 15.4101 0.842647 15.8771C1.30803 16.344 2.06256 16.344 2.52794 15.8771Z" fill="#8C2CFF"/>
<path d="M1.68682 16.4553C0.904262 16.4553 0.267578 15.8165 0.267578 15.0313C0.267578 14.246 0.904262 13.6072 1.68682 13.6072C2.46938 13.6072 3.10606 14.246 3.10606 15.0313C3.10606 15.8165 2.46938 16.4553 1.68682 16.4553ZM1.68682 14.0638C1.15516 14.0638 0.722677 14.4978 0.722677 15.0313C0.722677 15.5647 1.15516 15.9987 1.68682 15.9987C2.21848 15.9987 2.65097 15.5647 2.65097 15.0313C2.65097 14.4978 2.21845 14.0638 1.68682 14.0638Z" fill="#1A1A19"/>
<path d="M10.4324 0.228333H4.634C3.05144 0.228333 1.76855 1.5156 1.76855 3.10354V16.8965C1.76855 18.4844 3.05144 19.7717 4.634 19.7717H12.9061C14.4887 19.7717 15.7716 18.4844 15.7716 16.8965V5.58575L10.4324 0.228333Z" fill="white"/>
<path d="M12.9062 20H4.63401C2.92854 20 1.54102 18.6077 1.54102 16.8965V3.10353C1.54102 1.39226 2.92854 0 4.63401 0H10.4324C10.4928 0 10.5506 0.0240638 10.5934 0.0668835L15.9325 5.42427C15.9752 5.46708 15.9992 5.52515 15.9992 5.58571V16.8965C15.9992 18.6077 14.6117 20 12.9062 20ZM4.63401 0.456684C3.17948 0.456684 1.99611 1.64408 1.99611 3.10357V16.8965C1.99611 18.356 3.17948 19.5434 4.63401 19.5434H12.9062C14.3607 19.5434 15.5441 18.356 15.5441 16.8965V5.68034L10.3382 0.456684H4.63401Z" fill="#1A1A19"/>
<path d="M10.4326 0.228333L15.7718 5.58575H11.5712C10.9424 5.58575 10.4326 5.07423 10.4326 4.44324V0.228333Z" fill="#DCDDDE"/>
<path d="M15.7725 5.81407C15.7724 5.81407 15.7721 5.81407 15.7718 5.81407H11.5712C10.8179 5.81407 10.2051 5.19911 10.2051 4.44325V0.228368C10.2051 0.13602 10.2605 0.0527686 10.3456 0.0174309C10.4305 -0.0178717 10.5285 0.00162581 10.5935 0.0669267L15.9224 5.41398C15.9701 5.45581 16.0001 5.51725 16.0001 5.58575C16.0001 5.71186 15.8982 5.81407 15.7725 5.81407ZM10.6602 0.77958V4.44321C10.6602 4.94732 11.0689 5.35739 11.5712 5.35739H15.2225L10.6602 0.77958Z" fill="#1A1A19"/>
<path d="M1.79481 8.13605C1.08699 8.13605 0.513184 8.71181 0.513184 9.42204V14.8072H0.53667C0.650655 14.2141 1.17045 13.7661 1.79481 13.7661H14.7013V8.13608L1.79481 8.13605Z" fill="#8C2CFF"/>
<path d="M0.53668 15.0356H0.513194C0.387517 15.0356 0.285645 14.9333 0.285645 14.8072V9.42204C0.285645 8.58703 0.962652 7.90771 1.79482 7.90771H14.7013C14.827 7.90771 14.9289 8.00993 14.9289 8.13604V13.766C14.9289 13.8921 14.827 13.9944 14.7013 13.9944H1.79482C1.2906 13.9944 0.855427 14.3544 0.760102 14.8504C0.739482 14.9579 0.645729 15.0356 0.53668 15.0356ZM1.79485 8.36436C1.21362 8.36436 0.740777 8.83882 0.740777 9.42204V13.9688C1.0152 13.7003 1.38943 13.5377 1.79485 13.5377H14.4738V8.36436H1.79485Z" fill="#1A1A19"/>
<path d="M3.94535 9.56963C3.94535 9.47451 4.02288 9.39667 4.11338 9.39667H5.07434C5.75517 9.39667 6.20334 9.75988 6.20334 10.3566V10.3652C6.20334 11.0181 5.66037 11.3554 5.01829 11.3554H4.28572V12.2721C4.28572 12.3672 4.20818 12.445 4.11334 12.445C4.02285 12.445 3.94531 12.3672 3.94531 12.2721L3.94535 9.56963ZM5.03124 11.0441C5.53111 11.0441 5.85861 10.776 5.85861 10.3782V10.3696C5.85861 9.93717 5.53546 9.71232 5.0485 9.71232H4.28576V11.0441H5.03124Z" fill="white"/>
<path d="M6.82422 9.56963C6.82422 9.47451 6.90176 9.39667 6.99226 9.39667H7.87133C8.81933 9.39667 9.47433 10.0496 9.47433 10.9014V10.91C9.47433 11.7618 8.81933 12.4234 7.87133 12.4234H6.99226C6.90176 12.4234 6.82422 12.3455 6.82422 12.2504V9.56963ZM7.87133 12.1078C8.63404 12.1078 9.12099 11.5889 9.12099 10.9187V10.91C9.12099 10.2398 8.63404 9.71229 7.87133 9.71229H7.16459V12.1077L7.87133 12.1078Z" fill="white"/>
<path d="M10.1938 9.56963C10.1938 9.47451 10.2714 9.39667 10.3619 9.39667H12.2278C12.314 9.39667 12.3829 9.46587 12.3829 9.55235C12.3829 9.63883 12.314 9.71232 12.2278 9.71232H10.5343V10.7933H12.0339C12.1201 10.7933 12.189 10.8625 12.189 10.949C12.189 11.0354 12.1201 11.1046 12.0339 11.1046H10.5343V12.2721C10.5343 12.3672 10.4567 12.445 10.3619 12.445C10.2714 12.445 10.1938 12.3672 10.1938 12.2721V9.56963Z" fill="white"/>
</svg>
