<svg width="28" height="28" viewBox="0 0 28 28" fill="none" xmlns="http://www.w3.org/2000/svg">
<path d="M22.1667 1.16648H5.83333C4.28681 1.16833 2.80415 1.78351 1.71059 2.87707C0.617029 3.97063 0.0018525 5.45328 0 6.99981L0 20.9998C0.0018525 22.5463 0.617029 24.029 1.71059 25.1226C2.80415 26.2161 4.28681 26.8313 5.83333 26.8331H22.1667C23.7132 26.8313 25.1959 26.2161 26.2894 25.1226C27.383 24.029 27.9981 22.5463 28 20.9998V6.99981C27.9981 5.45328 27.383 3.97063 26.2894 2.87707C25.1959 1.78351 23.7132 1.16833 22.1667 1.16648ZM5.83333 3.49981H22.1667C22.8652 3.50118 23.5474 3.71158 24.1254 4.10391C24.7035 4.49625 25.1508 5.05258 25.41 5.70131L16.4757 14.6368C15.8182 15.2917 14.928 15.6594 14 15.6594C13.072 15.6594 12.1818 15.2917 11.5243 14.6368L2.59 5.70131C2.84917 5.05258 3.29655 4.49625 3.87456 4.10391C4.45256 3.71158 5.13475 3.50118 5.83333 3.49981ZM22.1667 24.4998H5.83333C4.90508 24.4998 4.01484 24.1311 3.35846 23.4747C2.70208 22.8183 2.33333 21.9281 2.33333 20.9998V8.74981L9.87467 16.2865C10.9697 17.3788 12.4533 17.9922 14 17.9922C15.5467 17.9922 17.0303 17.3788 18.1253 16.2865L25.6667 8.74981V20.9998C25.6667 21.9281 25.2979 22.8183 24.6415 23.4747C23.9852 24.1311 23.0949 24.4998 22.1667 24.4998Z" fill="#1A1A19"/>
</svg>
