<svg width="28" height="28" viewBox="0 0 28 28" fill="none" xmlns="http://www.w3.org/2000/svg">
<path d="M26.018 18.1653C26.6469 18.7959 27 19.6501 27 20.5407C27 21.4313 26.6469 22.2855 26.018 22.9161L25.0284 24.0555C16.1402 32.5608 -5.48394 10.9426 2.89206 2.02714L4.13994 0.941996C4.77109 0.33057 5.61757 -0.00778404 6.49627 0.00013597C7.37497 0.00805598 8.21522 0.361613 8.83524 0.984317C8.86888 1.01687 10.8785 3.62989 10.8785 3.62989C11.4731 4.25769 11.8039 5.08981 11.8027 5.95447C11.8015 6.81913 11.4683 7.65032 10.872 8.27645L9.61543 9.85642C10.311 11.546 11.3335 13.0815 12.6241 14.3748C13.9148 15.6682 15.4482 16.6937 17.1364 17.3927L18.7261 16.1285C19.3509 15.5306 20.1821 15.1964 21.0469 15.1951C21.9117 15.1939 22.7438 15.5259 23.3704 16.122C23.3704 16.122 25.9844 18.1328 26.018 18.1653ZM24.526 19.7431C24.526 19.7431 21.9293 17.7443 21.8957 17.7117C21.6721 17.4901 21.3701 17.3657 21.0553 17.3657C20.7404 17.3657 20.4384 17.4901 20.2148 17.7117C20.1855 17.74 17.9969 19.4849 17.9969 19.4849C17.8494 19.6023 17.6738 19.6792 17.4876 19.7081C17.3013 19.7371 17.1107 19.717 16.9345 19.6498C14.7463 18.8357 12.7587 17.5605 11.1065 15.9109C9.45425 14.2612 8.176 12.2756 7.3584 10.0886C7.28591 9.91008 7.26228 9.71544 7.28993 9.52473C7.31758 9.33402 7.39552 9.15411 7.51574 9.0035C7.51574 9.0035 9.2606 6.81803 9.2899 6.78981C9.51155 6.56626 9.63592 6.26419 9.63592 5.94937C9.63592 5.63456 9.51155 5.33249 9.2899 5.10893C9.25735 5.07638 7.25856 2.47747 7.25856 2.47747C7.03167 2.27401 6.73554 2.16505 6.43089 2.17292C6.12624 2.18079 5.83613 2.30489 5.62004 2.51979L4.37216 3.60493C-1.75006 10.9654 16.992 28.6684 23.4409 22.5764L24.4305 21.4359C24.6638 21.2218 24.8044 20.9251 24.8222 20.6089C24.84 20.2928 24.7338 19.9821 24.526 19.7431Z" fill="#1A1A19"/>
</svg>
