<svg width="28" height="28" viewBox="0 0 28 28" fill="none" xmlns="http://www.w3.org/2000/svg">
<path d="M25.0755 1.00233C24.7395 1.01906 24.423 1.12362 24.1417 1.24073H24.1378C23.8525 1.36203 22.4968 1.97268 20.4377 2.89703C18.3787 3.82556 15.7062 5.03014 13.0532 6.22636C7.75519 8.6146 2.54699 10.9652 2.54699 10.9652L2.60951 10.9401C2.60951 10.9401 2.25005 11.0656 1.87497 11.3416C1.68352 11.4755 1.47253 11.6595 1.2889 11.9481C1.10526 12.2367 0.956794 12.6801 1.01149 13.136C1.10136 13.9097 1.57021 14.374 1.90622 14.6291C2.24614 14.8885 2.57044 15.0098 2.57044 15.0098H2.57825L7.46215 16.7706C7.68095 17.5235 8.95077 21.9905 9.25552 23.0194C9.43525 23.6342 9.61107 24.019 9.82987 24.3118C9.93536 24.4624 10.0604 24.5878 10.2089 24.6882C10.2675 24.7259 10.33 24.7551 10.3925 24.7802C10.412 24.7928 10.4316 24.797 10.455 24.8011L10.4042 24.7886C10.4198 24.7928 10.4316 24.8053 10.4433 24.8095C10.4824 24.8221 10.5097 24.8262 10.5605 24.8346C11.3341 25.0856 11.9553 24.5711 11.9553 24.5711L11.9905 24.5418L14.874 21.7311L19.7071 25.7004L19.8165 25.7506C20.8245 26.2232 21.8443 25.9597 22.3835 25.4955C22.9265 25.027 23.1375 24.4289 23.1375 24.4289L23.1727 24.3327L26.9079 3.85066C27.0134 3.34457 27.0407 2.87194 26.9235 2.41185C26.8063 1.95177 26.5055 1.52097 26.1421 1.29093C25.7748 1.0567 25.4115 0.985598 25.0755 1.00233ZM24.9739 3.19818C24.97 3.2651 24.9817 3.25673 24.9543 3.38639V3.39894L21.2543 23.6677C21.2387 23.6969 21.2113 23.7597 21.1371 23.8224C21.0589 23.8893 20.9964 23.9312 20.6721 23.7931L14.7607 18.9414L11.1895 22.4254L11.9397 17.2976C11.9397 17.2976 21.1996 8.05832 21.5981 7.66098C21.9967 7.26363 21.8638 7.17998 21.8638 7.17998C21.8912 6.6948 21.2621 7.03778 21.2621 7.03778L9.08361 15.1143L9.0797 15.0934L3.24246 12.9896V12.9854C3.23855 12.9854 3.23074 12.9812 3.22683 12.9812C3.23074 12.9812 3.25809 12.9687 3.25809 12.9687L3.28935 12.9519L3.3206 12.9394C3.3206 12.9394 8.5327 10.5888 13.8308 8.20053C16.4837 7.00432 19.1562 5.79974 21.2113 4.8712C23.2665 3.94686 24.7863 3.26928 24.8723 3.23164C24.9543 3.19818 24.9153 3.19818 24.9739 3.19818Z" fill="#1A1A19"/>
</svg>
